# AST/ASF file generated using VICON BodyLanguage
# -----------------------------------------------
:version 1.10
:name VICON
:units
  mass 1.0
  length 0.45
  angle deg
:documentation
   .ast/.asf automatically generated from VICON data using
   VICON BodyBuilder and BodyLanguage model FoxedUp or BRILLIANT.MOD
:root
   order TX TY TZ RX RY RZ
   axis XYZ
   position 0 0 0  
   orientation 0 0 0 
:bonedata
  begin
     id 1 
     name lhipjoint
     direction 0.547975 -0.797114 0.253638 
     length 2.36201 
     axis 0 0 0  XYZ
  end
  begin
     id 2 
     name lfemur
     direction 0.34202 -0.939693 0  
     length 7.69075  
     axis 0 0 20  XYZ
    dof rx ry rz
    limits (-160.0 20.0)
           (-70.0 70.0)
           (-60.0 70.0)
  end
  begin
     id 3 
     name ltibia
     direction 0.34202 -0.939693 0   
     length 7.91399   
     axis 0 0 20   XYZ
    dof rx
    limits (-10.0 170.0)
  end
  begin
     id 4 
     name lfoot
     direction 0.0705293 -0.193778 0.978507   
     length 2.13618   
     axis -90 7.62852e-016 20   XYZ
    dof rx rz
    limits (-45.0 90.0)
           (-70.0 20.0)
  end
  begin
     id 5 
     name ltoes
     direction 1.53592e-011 -4.21925e-011 1   
     length 1.07518   
     axis -90 7.62852e-016 20   XYZ
    dof rx
    limits (-90.0 20.0)
  end
  begin
     id 6 
     name rhipjoint
     direction -0.57 -0.782963 0.249136   
     length 2.4047  
     axis 0 0 0  XYZ 
  end
  begin
     id 7 
     name rfemur
     direction -0.34202 -0.939693 0   
     length 7.51486   
     axis 0 0 -20   XYZ
    dof rx ry rz
    limits (-160.0 20.0)
           (-70.0 70.0)
           (-70.0 60.0)
  end
  begin
     id 8 
     name rtibia
     direction -0.34202 -0.939693 0   
     length 8.08317   
     axis 0 0 -20   XYZ
    dof rx
    limits (-10.0 170.0)
 end
 begin
     id 9 
     name rfoot
     direction -0.104954 -0.281256 0.953876   
     length 2.30343  
     axis -90 -7.62852e-016 -20   XYZ
    dof rx rz
    limits (-45.0 90.0)
           (-20.0 70.0)
  end
  begin
     id 10 
     name rtoes
     direction -1.53556e-011 -4.21922e-011 1   
     length 1.14803   
     axis -90 -7.62852e-016 -20   XYZ
    dof rx
    limits (-90.0 20.0)
  end
  begin
     id 11 
     name lowerback
     direction -0.0152855 0.99353 -0.11254   
     length 2.05311   
     axis 0 0 0   XYZ
    dof rx ry rz
    limits (-20.0 45.0)
           (-30.0 30.0)
           (-30.0 30.0)
  end
  begin
     id 12 
     name upperback
     direction -0.00157509 0.999443 -0.033332   
     length 2.06353   
     axis 0 0 0   XYZ
    dof rx ry rz
    limits (-20.0 45.0)
           (-30.0 30.0)
           (-30.0 30.0)
  end
  begin
     id 13 
     name thorax
     direction 0.00577788 0.999804 0.0189484   
     length 2.08472   
     axis 0 0 0   XYZ
    dof rx ry rz
    limits (-20.0 45.0)
           (-30.0 30.0)
           (-30.0 30.0)
  end
  begin
     id 14 
     name lowerneck
     direction -1.09301e-005 0.994719 0.10264   
     length 1.76249   
     axis 0 0 0   XYZ
    dof rx ry rz
    limits (-20.0 45.0)
           (-30.0 30.0)
           (-30.0 30.0)
  end
  begin
     id 15 
     name upperneck
     direction 0.0495018 0.988526 -0.142706   
     length 1.77897   
     axis 0 0 0   XYZ
    dof rx ry rz
    limits (-20.0 45.0)
           (-30.0 30.0)
           (-30.0 30.0)
  end
  begin
     id 16
     name head
     direction 0.0142736 0.998114 -0.0597101  
     length 1.78934  
     axis 0 0 0   XYZ
    dof rx ry rz
    limits (-20.0 45.0)
           (-30.0 30.0)
           (-30.0 30.0)
  end
  begin
     id 17 
     name lclavicle
     direction 0.918111 0.396107 -0.0130883  
     length 3.37276  
     axis 0 0 0   XYZ
    dof ry rz
    limits (-20.0 10.0)
           (0.0 20.0)
  end
  begin
     id 18 
     name lhumerus
     direction 1 -4.48975e-011 -3.26108e-027   
     length 5.34298   
     axis 180 -30 -90   XYZ
    dof rx ry rz
    limits (-60.0 90.0)
           (-90.0 90.0)
           (-90.0 90.0)
  end
  begin
     id 19
     name lradius
     direction 1 -4.48964e-011 -8.84413e-028   
     length 3.67262   
     axis 180 -30 -90   XYZ
    dof rx
    limits (-10.0 170.0)
  end
  begin
     id 20
     name lwrist
     direction 1 -4.48991e-011 -1.24264e-027   
     length 1.83631   
     axis -2.17013e-015 90 90   XYZ
    dof ry
    limits (-180.0 0.0)
 end
  begin
     id 21 
     name lhand
     direction 1 -4.48855e-011 -2.48528e-027   
     length 0.599298   
     axis 1.58582e-015 90 90   XYZ
    dof rx rz
    limits (-90.0 90.0)
           (-45.0 45.0)
  end
  begin
     id 22 
     name lfingers
     direction 1 -4.48811e-011 -4.97056e-027   
     length 0.48317   
     axis 3.17164e-015 90 90   XYZ
    dof rx
    limits (0.0 90.0)
  end
  begin
     id 23
     name lthumb
     direction 0.707107 -6.34882e-011 0.707107   
     length 0.693738   
     axis -90 45 2.85299e-015   XYZ
    dof rx rz
    limits (-45.0 45.0)
           (-45.0 45.0)
  end
  begin
     id 24 
     name rclavicle
     direction -0.920511 0.384752 -0.0680135   
     length 3.43787  
     axis 0 0 0   XYZ 
    dof ry rz
    limits (-10.0 20.0)
           (-20.0 0.0)
  end
  begin
     id 25 
     name rhumerus
     direction -0.999976 -0.00330524 0.00603274  
     length 5.5498   
     axis 180 30 90   XYZ
    dof rx ry rz
    limits (-90.0 60.0)
           (-90.0 90.0)
           (-90.0 90.0)
  end
  begin
     id 26 
     name rradius
     direction -1 -4.48967e-011 8.62438e-027   
     length 3.69401   
     axis 180 30 90   XYZ
    dof rx
    limits (-10.0 170.0)
  end
  begin
     id 27 
     name rwrist
     direction -1 -4.4897e-011 9.54866e-027   
     length 1.84701   
     axis -7.69462e-015 -90 -90   XYZ
    dof ry
    limits (-180.0 0.0)
  end
  begin
     id 28
     name rhand
     direction -1 -4.48982e-011 1.90973e-026   
     length 0.638113   
     axis -1.21857e-014 -90 -90   XYZ
    dof rx rz
    limits (-90.0 90.0)
           (-45.0 45.0)
  end
  begin
     id 29
     name rfingers
     direction -1 -4.48936e-011 3.81946e-026   
     length 0.514463   
     axis -2.43714e-014 -90 -90   XYZ
    dof rx
    limits (0.0 90.0)
  end
  begin
     id 30
     name rthumb
     direction -0.707107 -6.34942e-011 0.707107   
     length 0.738669   
     axis -90 -45 -2.85299e-015   XYZ
    dof rx rz
    limits (-45.0 45.0)
           (-45.0 45.0)
  end
:hierarchy
  begin
    root lhipjoint rhipjoint lowerback
    lhipjoint lfemur
    lfemur ltibia
    ltibia lfoot
    lfoot ltoes
    rhipjoint rfemur
    rfemur rtibia
    rtibia rfoot
    rfoot rtoes
    lowerback upperback
    upperback thorax
    thorax lowerneck lclavicle rclavicle
    lowerneck upperneck
    upperneck head
    lclavicle lhumerus
    lhumerus lradius
    lradius lwrist
    lwrist lhand lthumb
    lhand lfingers
    rclavicle rhumerus
    rhumerus rradius
    rradius rwrist
    rwrist rhand rthumb
    rhand rfingers
  end

#!OML:ASF F:\twosubjects\two\Thursday\Session 1\Rory.ASF
:FULLY-SPECIFIED
:DEGREES
149
root 19.7137 18.6415 10.0377 2.4177 -15.3006 1.5785
lowerback 2.11787 0.909142 -1.88585
upperback 0.623761 1.16752 -0.48777
thorax -0.575427 0.58402 0.526914
lowerneck -9.60086 -7.47771 -8.61464
upperneck 28.3385 -10.7071 5.71979
head 11.6031 -5.16225 2.14422
rclavicle -2.03956e-014 1.10822e-014
rhumerus -40.8604 20.5173 -102.38
rradius 100.127
rwrist -74.4542
rhand -27.1626 7.88366
rfingers 7.12502
rthumb -0.577164 -22.0953
lclavicle -2.03956e-014 1.10822e-014
lhumerus -43.5281 -24.8787 100.651
lradius 110.791
lwrist -8.62004
lhand -7.19885 19.2356
lfingers 7.12502
lthumb 18.6796 48.3588
rfemur -1.77452 6.36255 21.4597
rtibia 24.6092
rfoot -19.1447 0.334525
rtoes -0.735492
lfemur -24.6631 1.75064 -15.0866
ltibia 29.0293
lfoot -11.1784 11.7432
ltoes 4.87346
150
root 19.6872 18.647 10.1802 3.27707 -16.6858 1.05874
lowerback 1.55705 1.1626 -2.09473
upperback 0.460879 1.51505 -0.281721
thorax -0.447149 0.757934 0.855356
lowerneck -9.23108 -7.77697 -8.8674
upperneck 27.5644 -11.1485 6.02446
head 11.3058 -5.36858 2.24598
rclavicle -1.04176e-014 -1.51573e-014
rhumerus -40.8524 20.3703 -102.164
rradius 99.5059
rwrist -74.835
rhand -26.8799 6.75634
rfingers 7.12502
rthumb -0.3041 -23.2232
lclavicle -1.04176e-014 -1.51573e-014
lhumerus -43.5423 -24.2215 100.39
lradius 110.721
lwrist -8.51423
lhand -7.51385 19.5066
lfingers 7.12502
lthumb 18.3766 48.6585
rfemur -2.0028 7.10765 21.8073
rtibia 24.2075
rfoot -18.6878 0.672309
rtoes -2.52129
lfemur -25.1284 1.83706 -14.0741
ltibia 26.808
lfoot -10.2121 12.5907
ltoes 3.75205
151
root 19.6831 18.6561 10.3222 4.17714 -17.9174 0.540279
lowerback 0.981057 1.42677 -1.94548
upperback 0.364515 1.88287 -0.171161
thorax -0.233335 0.940664 0.891423
lowerneck -8.85438 -8.16972 -9.13866
upperneck 26.487 -11.7211 6.44231
head 10.9214 -5.62688 2.37337
rclavicle -7.04443e-014 1.56543e-014
rhumerus -40.648 19.9301 -101.835
rradius 98.7629
rwrist -74.7851
rhand -25.8344 6.75522
rfingers 7.12502
rthumb 0.705724 -23.2234
lclavicle -7.04443e-014 1.56543e-014
lhumerus -43.5112 -23.6739 100.336
lradius 110.724
lwrist -8.38667
lhand -8.30893 19.7305
lfingers 7.12502
lthumb 17.6116 48.9529
rfemur -2.33738 7.48943 21.9703
rtibia 23.9199
rfoot -18.5842 1.19227
rtoes -4.79665
lfemur -25.7277 1.54922 -13.0873
ltibia 24.7571
lfoot -9.11941 13.6899
ltoes 0.385782
152
root 19.7055 18.6811 10.4664 5.34499 -19.0826 0.134236
lowerback 0.175197 1.68642 -1.54038
upperback 0.125377 2.24611 -0.192081
thorax -0.0212913 1.12235 0.660483
lowerneck -8.37161 -8.58015 -9.7031
upperneck 25.5507 -12.3798 7.21795
head 10.636 -5.92017 2.66663
rclavicle -7.15314e-014 -3.47873e-016
rhumerus -40.4892 19.3255 -101.482
rradius 97.7605
rwrist -74.5174
rhand -24.1709 8.10296
rfingers 7.12502
rthumb 2.31232 -21.8643
lclavicle -7.15314e-014 -3.47873e-016
lhumerus -43.7389 -23.128 100.467
lradius 110.662
lwrist -8.48529
lhand -9.56648 19.586
lfingers 7.12502
lthumb 16.4011 48.9126
rfemur -3.0981 8.11765 21.8214
rtibia 23.7845
rfoot -18.2008 2.04389
rtoes -2.96039
lfemur -26.7159 0.386681 -12.0151
ltibia 22.9548
lfoot -9.03522 14.9782
ltoes 0.0266671
153
root 19.7173 18.7019 10.6116 6.87622 -20.1098 -0.266172
lowerback -1.12495 1.82161 -1.36966
upperback -0.170529 2.446 -0.172199
thorax 0.405665 1.22105 0.624925
lowerneck -8.03885 -8.96182 -10.3284
upperneck 24.8469 -12.9986 8.01733
head 10.4817 -6.19563 2.97403
rclavicle -1.6114e-014 1.16289e-014
rhumerus -40.4231 19.0368 -101.119
rradius 96.8348
rwrist -74.2213
rhand -23.2344 8.29997
rfingers 7.12502
rthumb 3.21677 -21.6555
lclavicle -1.6114e-014 1.16289e-014
lhumerus -43.9449 -22.3753 100.336
lradius 110.672
lwrist -8.44772
lhand -10.4888 19.8555
lfingers 7.12502
lthumb 15.5129 49.2532
rfemur -4.10671 8.71953 21.623
rtibia 23.2807
rfoot -17.1135 3.16097
rtoes 1.24776
lfemur -27.9504 -0.548834 -10.9118
ltibia 21.1811
lfoot -9.15528 15.6482
ltoes 1.51558
